<!-- icon666.com - MILLIONS vector ICONS FREE --><svg version="1.1" id="Layer_1" xmlns="http://www.w3.org/2000/svg" xmlns:xlink="http://www.w3.org/1999/xlink" x="0px" y="0px" viewBox="0 0 64 64" enable-background="new 0 0 64 64" xml:space="preserve"><g id="House"><path d="M60.2514381,25.1789875l-10.2806015-9.6513996V4.3947873c0-0.5526998-0.4504013-0.9999998-1.0070992-0.9999998h-7.6506996 c-0.5567017,0-1.0072021,0.4473-1.0072021,0.9999998v2.0586004l-5.8518982-5.4932003 c-1.363102-1.2793-3.5002995-1.2793-4.8653908,0L3.739938,25.227787c-0.7062001,0.6631012-0.930392,1.6709003-0.5705001,2.5684013 c0.359,0.8954983,1.2196002,1.4745998,2.1912999,1.4745998h4.8879995v31.1055012c0,0.9686966,0.3797007,1.8788986,1.0681,2.5625 c0.6885004,0.6834984,1.6051006,1.0604973,2.5798006,1.0604973h17.5792999c0.5566101,0,1.0070992-0.4473,1.0070992-1V43.7502861 c0-0.0995979,0.0393028-0.1933975,0.1082001-0.2616997c0.0708008-0.0694008,0.1651993-0.1083984,0.2655029-0.1083984h9.3030968 c0.088501,0,0.1721001,0.0340996,0.2340012,0.0956993c0.0620003,0.0615005,0.0974007,0.1464005,0.0974007,0.2333984v19.2900009 c0,0.5527,0.4503975,1,1.0070992,1h6.6465988c2.0132027,0,3.6508026-1.6259995,3.6508026-3.625V29.2707882h4.8171997 c0.9834976,0,1.8538971-0.5860004,2.2178001-1.4961014C61.1917381,26.8683872,60.9645462,25.8498878,60.2514381,25.1789875z M50.1449356,61.9992867h-5.6394997V43.7092857c0-0.6132965-0.2507973-1.2138977-0.6874008-1.6474991 c-0.4425964-0.4394989-1.0316963-0.6815987-1.6581993-0.6815987H32.856739c-0.6373024,0-1.2363014,0.2461014-1.6897011,0.6942978 c-0.4504013,0.4492035-0.6982002,1.0439034-0.6982002,1.6758003v18.2490005H13.8966379 c-0.4366999,0-0.8467999-0.1688995-1.1556005-0.4745979c-0.3078995-0.3067017-0.4779997-0.7139015-0.4779997-1.1483994V28.935688 l20.098999-19.0067005l19.4193993,18.7723999v31.6728992C51.7814369,61.2707863,51.0477371,61.9992867,50.1449356,61.9992867z M58.959137,27.0383873c-0.0559998,0.1385994-0.1947021,0.2324009-0.346199,0.2324009h-5.4239006l-20.1169014-19.4473 c-0.3864975-0.3739996-1.0042-0.3778996-1.3965893-0.0077996l-20.5732079,19.455101h-5.7416 c-0.1426001,0-0.2674999-0.0840015-0.3196998-0.2139015c-0.0531001-0.1317997-0.0196004-0.2792988,0.0826998-0.3759995 L30.9723377,2.4133875c0.5881004-0.5508001,1.5116978-0.5508001,2.0977993,0l7.5514107,7.0888004 c0.2920876,0.2743998,0.7218895,0.3526001,1.0897903,0.1913996c0.3698006-0.1571999,0.608799-0.5184994,0.608799-0.9179001 V5.3947873h5.6365013v10.5634995c0,0.2754011,0.1140976,0.5381002,0.3146973,0.7265005l10.596302,9.9463005 C58.9788361,26.7365875,59.0152359,26.8967876,58.959137,27.0383873z" fill="#4b4b4b"></path></g></svg>