<!-- icon666.com - MILLIONS vector ICONS FREE --><svg version="1.1" id="Layer_1" xmlns="http://www.w3.org/2000/svg" xmlns:xlink="http://www.w3.org/1999/xlink" x="0px" y="0px" viewBox="0 0 231.062 231.062" style="enable-background:new 0 0 231.062 231.062;" xml:space="preserve"><g><g><g><path d="M115.531,0C51.826,0,0,51.826,0,115.531s51.826,115.531,115.531,115.531s115.531-51.826,115.531-115.531 S179.236,0,115.531,0z M115.531,222.809c-59.155,0-107.279-48.123-107.279-107.279c0-59.156,48.123-107.278,107.279-107.278 S222.81,56.375,222.81,115.531S174.686,222.809,115.531,222.809z" fill="#000000" style="fill: rgb(75, 75, 75);"></path><path d="M59.8,102.016c8.131,7.422,11.093,8.147,12.35,8.156c0.032,0.004,0.068,0.004,0.109,0.004 c1.269,0,4.106-0.725,12.145-8.015c6.672-6.048,14.622-14.897,14.622-22.694c0-11.17-6.407-17.576-17.576-17.576 c-3.304,0-6.491,0.915-9.243,2.623c-2.756-1.708-5.94-2.623-9.247-2.623c-11.166,0-17.572,6.407-17.572,17.576 C45.387,87.232,53.224,96.016,59.8,102.016z M62.959,70.144c2.398,0,4.674,0.907,6.407,2.551c1.596,1.507,4.086,1.507,5.682,0 c1.733-1.644,4.009-2.551,6.402-2.551c6.624,0,9.324,2.7,9.324,9.324c0,6.415-13.567,18.709-18.584,21.993 c-4.944-3.244-18.551-15.642-18.551-21.993C53.639,72.843,56.339,70.144,62.959,70.144z" fill="#000000" style="fill: rgb(75, 75, 75);"></path><path d="M146.448,102.016c8.131,7.422,11.093,8.147,12.35,8.156c0.032,0.004,0.068,0.004,0.109,0.004 c1.269,0,4.106-0.725,12.145-8.015c6.672-6.048,14.622-14.897,14.622-22.694c0-11.17-6.407-17.576-17.576-17.576 c-3.304,0-6.491,0.915-9.243,2.623c-2.756-1.708-5.94-2.623-9.247-2.623c-11.166,0-17.572,6.407-17.572,17.576 C132.035,87.232,139.872,96.016,146.448,102.016z M149.607,70.144c2.398,0,4.674,0.907,6.407,2.551 c1.596,1.507,4.086,1.507,5.682,0c1.733-1.644,4.009-2.551,6.402-2.551c6.624,0,9.324,2.7,9.324,9.324 c0,6.415-13.567,18.709-18.584,21.993c-4.944-3.244-18.551-15.642-18.551-21.993C140.287,72.843,142.987,70.144,149.607,70.144z" fill="#000000" style="fill: rgb(75, 75, 75);"></path><path d="M185.674,127.909H45.387c-2.28,0-4.126,1.846-4.126,4.126c0,40.951,33.319,74.27,74.27,74.27s74.27-33.319,74.27-74.27 C189.801,129.755,187.955,127.909,185.674,127.909z M115.531,198.053c-35.015,0-63.753-27.404-65.889-61.891h131.777 C179.284,170.649,150.546,198.053,115.531,198.053z" fill="#000000" style="fill: rgb(75, 75, 75);"></path></g></g></g></svg>